<svg class="logo_logoImg__2UqM0" width="121px" height="36px" viewBox="0 0 121 36" version="1.1" xmlns="http://www.w3.org/2000/svg" xmlns:xlink="http://www.w3.org/1999/xlink"><defs><polygon id="path-1" points="0.000349272 0.05568948 26.1066849 0.05568948 26.1066849 26.5555576 0.000349272 26.5555576"></polygon><polygon id="path-3" points="0 0.05568948 28.234437 0.05568948 28.234437 26.5555576 0 26.5555576"></polygon><polygon id="path-5" points="0.044926728 0.015859536 26.2000958 0.015859536 26.2000958 34.21572 0.044926728 34.21572"></polygon></defs><g id="Array-Clean-version" stroke="none" stroke-width="1" fill="none" fill-rule="evenodd"><g id="Product---White-Label-portal" transform="translate(-167.000000, -49.000000)"><g id="Navbar-01-white" transform="translate(165.000000, 40.000000)"><g id="Menu"><g id="Group-14" transform="translate(2.000000, 9.000000)"><g id="Group-3" transform="translate(66.297000, 0.008991)"><mask id="mask-2" fill="white"><use xlink:href="#path-1"></use></mask><g id="Clip-2"></g><path d="M19.0727996,16.1694373 C18.7294135,17.0402888 18.2605482,17.7967214 17.6687908,18.4387351 C17.074317,19.0806841 16.3848282,19.591462 15.5948913,19.9682877 C14.8050192,20.3478946 13.964826,20.5348845 13.0772223,20.5348845 C12.1896187,20.5348845 11.3494902,20.3562384 10.5623346,19.9933836 C9.77246239,19.6305288 9.08019235,19.1309404 8.48843503,18.4889268 C7.89674239,17.8469778 7.42781239,17.0905452 7.08164503,16.2168477 C6.73560703,15.3460609 6.56252335,14.3997925 6.56252335,13.3810178 C6.56252335,12.3622431 6.73560703,11.3992226 7.08164503,10.4920856 C7.42781239,9.58772984 7.89674239,8.81454512 8.48843503,8.17253144 C9.08019235,7.53058244 9.77246239,7.02258572 10.5623346,6.6429788 C11.3494902,6.26615312 12.1896187,6.076382 13.0772223,6.076382 C13.964826,6.076382 14.8050192,6.26615312 15.5948913,6.6429788 C16.3848282,7.02258572 17.074317,7.5417074 17.6687908,8.19769196 C18.2605482,8.85645776 18.7294135,9.6295778 19.0727996,10.5171814 C19.418967,11.407631 19.5919213,12.3622431 19.5919213,13.3810178 C19.5919213,14.3662882 19.418967,15.2958045 19.0727996,16.1694373 L19.0727996,16.1694373 Z M21.0406239,0.597145164 L19.887897,3.31299368 C18.9025618,2.26071476 17.7497702,1.4540258 16.4350845,0.892991484 C15.1176823,0.334803084 13.6689796,0.055644204 12.0919519,0.055644204 C10.4450697,0.055644204 8.89035655,0.393403164 7.42781239,1.06607516 C5.96242231,1.74159308 4.67845963,2.67104468 3.57870559,3.85455932 C2.47617031,5.04079052 1.60247287,6.44758052 0.963369792,8.07486464 C0.321356112,9.70214876 0.000349272,11.4550414 0.000349272,13.3307614 C0.000349272,15.2064168 0.321356112,16.9509657 0.963369792,18.5614977 C1.60247287,20.1748756 2.47617031,21.5732572 3.57870559,22.7567719 C4.67845963,23.9402218 5.96242231,24.8725194 7.42781239,25.5451267 C8.89035655,26.2205799 10.4450697,26.5555576 12.0919519,26.5555576 C13.6689796,26.5555576 15.1176823,26.2764634 16.4350845,25.7182104 C17.7497702,25.1599573 18.9025618,24.3532683 19.887897,23.3009894 L21.0406239,26.0140567 L26.1066849,26.0140567 L26.1066849,0.597145164 L21.0406239,0.597145164 Z" id="Fill-1" fill="#26199F" mask="url(#mask-2)"></path></g><g id="Group-6" transform="translate(0.000000, 0.008991)"><mask id="mask-4" fill="white"><use xlink:href="#path-3"></use></mask><g id="Clip-5"></g><path d="M19.0752316,16.1694373 C18.7291289,17.0402888 18.2601989,17.7967214 17.6684416,18.4387351 C17.0767489,19.0806841 16.3844789,19.5913974 15.597388,19.9682877 C14.8074511,20.3478946 13.9673226,20.5348845 13.0796543,20.5348845 C12.1921153,20.5348845 11.3519221,20.3562384 10.5619853,19.9933836 C9.77211312,19.6305288 9.082689,19.1309404 8.490867,18.4889268 C7.89639312,17.8469778 7.42746312,17.0904805 7.08414168,16.2168477 C6.738039,15.3460609 6.56495532,14.3997925 6.56495532,13.3810178 C6.56495532,12.3622431 6.738039,11.3992226 7.08414168,10.4920856 C7.42746312,9.58766516 7.89639312,8.81454512 8.490867,8.17253144 C9.082689,7.53058244 9.77211312,7.02252104 10.5619853,6.6429788 C11.3519221,6.26615312 12.1921153,6.076382 13.0796543,6.076382 C13.9673226,6.076382 14.8074511,6.26615312 15.597388,6.6429788 C16.3844789,7.02252104 17.0767489,7.5417074 17.6684416,8.19769196 C18.2601989,8.85645776 18.7291289,9.6295778 19.0752316,10.5171814 C19.4213342,11.407631 19.5944179,12.3622431 19.5944179,13.3810178 C19.5944179,14.3662882 19.4213342,15.2958045 19.0752316,16.1694373 L19.0752316,16.1694373 Z M21.0430559,0.597145164 L19.8902642,3.31299368 C18.9022126,2.26071476 17.7494209,1.45409048 16.4347352,0.892991484 C15.1200496,0.334803084 13.6714116,0.055644204 12.0916026,0.055644204 C10.4475664,0.055644204 8.8928532,0.393403164 7.42746312,1.06607516 C5.96485428,1.74159308 4.6808916,2.67104468 3.57835632,3.85455932 C2.47582104,5.04079052 1.60490484,6.44758052 0.96295584,8.07486464 C0.32100684,9.70214876 0,11.4550414 0,13.3307614 C0,15.2064168 0.32100684,16.9509657 0.96295584,18.5614977 C1.60490484,20.1748756 2.47582104,21.5732572 3.57835632,22.7567719 C4.6808916,23.9402218 5.96485428,24.8724547 7.42746312,25.5451267 C8.8928532,26.2205799 10.4475664,26.5555576 12.0916026,26.5555576 C13.6714116,26.5555576 15.1200496,26.2764634 16.4347352,25.7182104 C17.7494209,25.1599573 18.9022126,24.3532683 19.8902642,23.3009894 L21.0430559,26.0140567 L26.1091169,26.0140567 L28.234437,26.0140567 L28.234437,22.1262066 L26.1091169,22.1262066 L26.1091169,4.48505996 L28.234437,4.48505996 L28.234437,0.597145164 L26.1091169,0.597145164 L21.0430559,0.597145164 Z" id="Fill-4" fill="#26199F" mask="url(#mask-4)"></path></g><path d="M64.0992383,0.436486512 L64.0992383,0.436486512 L64.0982681,0.436486512 C64.0974919,0.436551192 64.0965864,0.436486512 64.0957456,0.436486512 C64.0942579,0.436486512 64.092835,0.436680552 64.0913473,0.436680552 C61.5772357,0.438232872 59.0919714,1.18147075 57.2410885,2.36873683 L56.4313596,0.605365992 L51.3649105,0.605365992 L51.3649105,26.0230537 L57.8804503,26.0230537 L57.8804503,11.6665515 L57.8856247,11.6665515 C57.9528919,8.55369715 60.002213,7.34269351 62.1757844,6.97013671 C62.1913076,6.96754951 62.209418,6.96237511 62.2249412,6.95972323 C63.2755385,6.74757283 64.4631926,6.72428803 65.7776843,6.88728163 L65.7776843,0.571020912 C65.2095998,0.475553232 64.6518642,0.428983632 64.0992383,0.436486512" id="Fill-7" fill="#26199F"></path><path d="M46.4139023,0.436486512 L46.4129321,0.436486512 C46.4120913,0.436551192 46.4111857,0.436486512 46.4104096,0.436486512 C46.4089219,0.436486512 46.4074343,0.436680552 46.4060113,0.436680552 C43.8918997,0.438232872 41.4066354,1.18147075 39.5557525,2.36873683 L38.7460236,0.605365992 L33.6795745,0.605365992 L33.6795745,0.606142152 L31.5542544,0.606142152 L31.5542544,4.49399227 L33.6795745,4.49399227 L33.6795745,22.1352036 L31.5542544,22.1352036 L31.5542544,26.0230537 L33.6795745,26.0230537 L40.1950497,26.0230537 L40.1950497,11.6665515 L40.2002241,11.6665515 C40.2674913,8.55369715 42.3168771,7.34269351 44.4904485,6.97013671 C44.5059717,6.96754951 44.5240821,6.96237511 44.5396053,6.95972323 C45.5901378,6.74757283 46.777792,6.72428803 48.0923483,6.88728163 L48.0923483,0.571020912 C47.5242639,0.475553232 46.9664635,0.428983632 46.4139023,0.436486512 Z" id="Fill-9" fill="#26199F"></path><g id="Group-13" transform="translate(93.915360, 0.591111)"><mask id="mask-6" fill="white"><use xlink:href="#path-5"></use></mask><g id="Clip-12"></g><polygon id="logo-y-letter" fill="#26199F" mask="url(#mask-6)" points="19.2421448 0.015859536 13.171668 17.5388358 6.95378561 0.015859536 0.044926728 0.015859536 9.86483837 25.8759584 6.74415773 34.2079713 13.399471 34.2157329 22.4998823 9.90032182 25.4626791 1.99267438 26.2000958 0.015859536"></polygon></g></g></g></g></g></g></svg>