<svg xmlns="http://www.w3.org/2000/svg" width="23.352" height="23.359" viewBox="0 0 23.352 23.359"><defs><style>.a{fill:#2e75e6;}</style></defs><path class="a" d="M24.129,12.123l-10.9-10.9a.778.778,0,0,0-1.105,0l-10.9,10.9a.783.783,0,0,0,.553,1.331H4.114v10.12a.778.778,0,0,0,.778.778h6.228a.778.778,0,0,0,.778-.778V18.9h1.557v4.671a.778.778,0,0,0,.778.778h6.228a.778.778,0,0,0,.778-.778V13.455h2.335a.783.783,0,0,0,.553-1.331ZM20.463,11.9a.778.778,0,0,0-.778.778V22.8H15.013V18.126a.778.778,0,0,0-.778-.778H11.121a.778.778,0,0,0-.778.778V22.8H5.671V12.676a.778.778,0,0,0-.778-.778H3.655l9.023-9.023L21.7,11.9Z" transform="translate(-1.002 -0.994)"/></svg>